/* XPM */
static char * xonotic_32_xpm[] = {
"32 32 92 1",
" 	c None",
".	c #01070B",
"+	c #150400",
"@	c #000A12",
"#	c #0E0805",
"$	c #1B0500",
"%	c #000D19",
"&	c #250700",
"*	c #220800",
"=	c #00101F",
"-	c #2C0900",
";	c #0C1118",
">	c #14100D",
",	c #101114",
"'	c #021528",
")	c #320B00",
"!	c #1D120D",
"~	c #390B03",
"{	c #400A01",
"]	c #3B0D00",
"^	c #0A172F",
"/	c #440D00",
"(	c #231713",
"_	c #091D34",
":	c #051F3F",
"<	c #2B190D",
"[	c #30180D",
"}	c #38160B",
"|	c #141E29",
"1	c #201D22",
"2	c #0A2544",
"3	c #332018",
"4	c #551804",
"5	c #461D0A",
"6	c #0A284F",
"7	c #052956",
"8	c #3A2113",
"9	c #501E05",
"0	c #142A40",
"a	c #452115",
"b	c #0E2F4F",
"c	c #442717",
"d	c #10325A",
"e	c #602309",
"f	c #093467",
"g	c #00376F",
"h	c #003A66",
"i	c #5A2912",
"j	c #482D29",
"k	c #113B75",
"l	c #163C6A",
"m	c #443436",
"n	c #643013",
"o	c #5B321C",
"p	c #712D10",
"q	c #6C2F0F",
"r	c #2C3F53",
"s	c #1B4573",
"t	c #174983",
"u	c #244A73",
"v	c #7A3C1A",
"w	c #5E4140",
"x	c #6A402B",
"y	c #863F1B",
"z	c #235394",
"A	c #265482",
"B	c #285489",
"C	c #8E461E",
"D	c #994619",
"E	c #914826",
"F	c #53556B",
"G	c #8C4C28",
"H	c #2F5D99",
"I	c #2462A6",
"J	c #475E79",
"K	c #316295",
"L	c #3F6892",
"M	c #A65524",
"N	c #2A6DB7",
"O	c #4D6B91",
"P	c #3373B4",
"Q	c #3C72AD",
"R	c #4673AA",
"S	c #337AC8",
"T	c #397AC2",
"U	c #417EC0",
"V	c #4A81BD",
"W	c #6386AF",
"X	c #5C89BB",
"Y	c #7396C1",
"Z	c #87AACF",
"`	c #91BBE2",
"                                ",
"           ==========           ",
"        :0'==%%%%%%=='0:        ",
"       dOb'%%%%%%%%%%'bOd       ",
"      LW:^=%%%@@@@%%%=^:WL      ",
"     LY6'%%@@@@@@@@@@@%'6YL     ",
"    AZ6^%@@@@@@@@.,,,,,%'6ZA    ",
"   s`s^=@@@@@...>(8Gcxx31_s`s   ",
"  fYY:=%@@@...>(oGy4ye4Ex12YYf  ",
"  BZB^%@@@...!<GpyMp/pCGG(_BZB  ",
" gXW7=%@@..#!oC4/py4pvc8(;=7WXg ",
" kLV:%@@..><vp//////MCCG8,%:VLk ",
" IAU:%@..>[C4{{{{{{{{4yv3,%:UAI ",
" NAN:%@.!aD/]]]]]]]]pv[!>@%:NAN ",
" SsN:@,(oy4D]~~~~~~pn*#..@%:NsS ",
"fTlS:;(nDyMe))))))]v*#...@%:SlTf",
"gTlT21vDnvpe))))))p[##...@%:TlTg",
" ThPd183nDvq------q<#....@=7PhT ",
" SdBz_;>[8n]------n[#....@^zBdS ",
" IsbT6=.><n&&&&&&&9a!#..@=6TbsI ",
" gKbsI_;!59********n8!>,;_IsbKg ",
" gT22Pd1ci*********&ii831dP22Tg ",
"  zu2bTw5$$$$$$$$$$$$*5ixUb2uz  ",
"  gT__0Vw)$$$$$$$$$$$$}wV0__Tg  ",
"   tK___QFa*++++++++*aFQ___Kt   ",
"    Iu'''uQOj}++++}jOQu'''uI    ",
"    kNu====0KRa##aRK0====uNk    ",
"     kIL%%%%%0O**O0%%%%%LIk     ",
"       tVr@@@@OmmO@@@@rVt       ",
"        gHXJ|.;YY;.|JXHg        ",
"          ggRXWYYWXRgg          ",
"               ff               "}
