/* XPM */
static char * xonotic_32_xpm[] = {
"32 32 92 1",
" 	c None",
".	c #000509",
"+	c #0F0303",
"@	c #150400",
"#	c #1B0400",
"$	c #010C14",
"%	c #220700",
"&	c #010F1A",
"*	c #250700",
"=	c #2B0900",
"-	c #011321",
";	c #310A03",
">	c #001628",
",	c #330B00",
"'	c #390B03",
")	c #400A01",
"!	c #3C0E00",
"~	c #051A31",
"{	c #331103",
"]	c #430D00",
"^	c #4D1002",
"/	c #0A1F36",
"(	c #141E29",
"_	c #451A07",
":	c #082743",
"<	c #0A273F",
"[	c #4F1D08",
"}	c #5B1B07",
"|	c #182C3F",
"1	c #0C2F51",
"2	c #5D2409",
"3	c #65240A",
"4	c #562812",
"5	c #4D2C1B",
"6	c #0D3A65",
"7	c #662A06",
"8	c #722D0F",
"9	c #743101",
"0	c #2C3F53",
"a	c #77310A",
"b	c #1A4673",
"c	c #7C3908",
"d	c #683D29",
"e	c #733B1E",
"f	c #823A03",
"g	c #214C76",
"h	c #8B3E18",
"i	c #8F410D",
"j	c #963F11",
"k	c #604D4A",
"l	c #255A88",
"m	c #255A9B",
"n	c #295B8F",
"o	c #9F4610",
"p	c #984A17",
"q	c #255EA5",
"r	c #1761B1",
"s	c #9A4A21",
"t	c #A54C15",
"u	c #475E79",
"v	c #346399",
"w	c #A2511E",
"x	c #3E6792",
"y	c #5C6272",
"z	c #266BBB",
"A	c #2271BD",
"B	c #4D6C8F",
"C	c #3C6FA5",
"D	c #B15A26",
"E	c #3472BA",
"F	c #3373B4",
"G	c #3479C1",
"H	c #4178AE",
"I	c #287ED1",
"J	c #347CCA",
"K	c #387FC7",
"L	c #4380C1",
"M	c #3A84D2",
"N	c #5489C0",
"O	c #488CD4",
"P	c #648AB7",
"Q	c #628DB2",
"R	c #678DBA",
"S	c #5691CC",
"T	c #748CA8",
"U	c #5F9AD7",
"V	c #6D99CC",
"W	c #74A4DA",
"X	c #81A4C9",
"Y	c #7AACDC",
"Z	c #8DBCE9",
"`	c #98C2EA",
"                                ",
"                                ",
"         E            E         ",
"       AUG            EUA       ",
"      SW                WS      ",
"     SY                  YS     ",
"    LZr                  rZL    ",
"   E`E            cwcppc  E`E   ",
"   YW           pwh}h3}sp  WY   ",
"  GXL          w8hD8^3swD  LXG  ",
"  VR         is^]8h^ai9     RV  ",
" zxS        p8]]]]]]Dpptf   Sxz ",
" JlO       t}))))))))}io    OlJ ",
" MgJ     fo]!!!!!!!!8o      JgM ",
" MbI    ih}t!''''''8i       IbM ",
" K6M   ijht3,,,,,,!i        M6K ",
" K6K  otffa3;;;;;;a9        K6K ",
" K6Fq f ftia======a        rF6K ",
" M1nz     f!======a        An1M ",
" Ib1K     a*******29       K1bI ",
" rv1bJ   c[%%%%%%%%a9     Jb1vr ",
"  K::Fq c7%%%%%%%%%*2a9  mF::K  ",
"  Ag:1Le_############%_2eH1:gA  ",
"   K//:Hd{############{dH://K   ",
"   zv~~/Ck[%@@@@@@@@%[kC/~~vz   ",
"    Jg>>>gCy4!@++@!4yCg>>>gJ    ",
"     Jg----<lB[++[Bl<----gJ     ",
"      Jx&&&&&|y==y|&&&&&xJ      ",
"       AN0$$$$B55B$$$$0NA       ",
"         KPu(.$TT$.(uPK         ",
"           rSVQXXQVSr           ",
"                                "};
