<?xml version="1.0" encoding="UTF-8" standalone="no"?>
<svg xmlns="http://www.w3.org/2000/svg" xml:space="preserve" width="800.00000px" height="800.00000px" style="shape-rendering:geometricPrecision; text-rendering:geometricPrecision; image-rendering:optimizeQuality; fill-rule:evenodd; clip-rule:evenodd" viewBox="0 0 8.5 11">
 <defs>
  <style type="text/css">
    #nex-logo {fill:#000000}
  </style>
 </defs>
 <g>
  <path id="nex-logo" d="M2.72788 0.447937c0.177299,0.0096811 0.337701,0.0561457 0.393295,0.073563 0.267083,0.0836811 0.529291,0.174772 0.787957,0.262272 0.28674,0.0969961 0.532291,0.269654 0.628858,0.585705 0.0901811,0.360004 -0.0558858,0.639098 -0.0893858,0.81022l1.40719 -0.310941c0.206606,-0.0438071 0.568185,-0.154606 0.688213,-0.102413 0.527224,0.117831 0.99852,0.265697 1.44468,0.415976 0.185236,0.0700984 0.378744,0.147657 0.407528,0.216315 -0.00700394,0.112807 -0.0482244,0.26952 -0.0883819,0.430417l-0.923394 3.61046c-0.0442008,0.172839 -0.0928583,0.327858 -0.136417,0.47176 -0.295283,0.93702 -0.730976,1.76804 -1.2257,2.51009 -0.252083,0.380154 -0.592469,0.846988 -0.879461,1.11901 -0.202118,-0.365457 -0.400028,-0.73722 -0.577681,-1.13935 -0.0493622,-0.11174 -0.103228,-0.238083 -0.091189,-0.302535 0.0034685,-0.0034685 0.00694882,-0.00694882 0.0104173,-0.0104173 0.212969,0.0112283 0.377327,0.115827 0.494343,0.160803 0.11898,-0.109024 0.221949,-0.269075 0.322638,-0.410528 0.365917,-0.630516 0.549024,-1.34399 0.708972,-2.12128 0.0228465,-0.111024 0.0818346,-0.529898 0.104209,-0.643488 0.049437,-0.476114 0.0798346,-0.631358 0.12776,-1.06247 0.0659567,-0.54848 0.138799,-1.09027 0.204756,-1.63875l-2.57946 0.58326 -0.701654 2.18198c-0.0248465,0.0772756 -0.185917,0.46878 -0.227079,0.527142 -0.216906,0.422516 -0.463854,0.748634 -0.739083,1.06182 -0.226319,0.279992 -0.743043,0.715732 -0.93124,0.853272 -0.113736,0.083122 -0.251909,0.184433 -0.453524,0.311969 -0.27637,0.174823 -0.590232,0.358268 -0.695327,0.342268 -0.00255906,-0.0339488 0.140854,-0.192201 0.249,-0.306717 0.28348,-0.328858 0.531213,-0.664701 0.786331,-1.02241 0.243043,-0.385508 0.485055,-0.810681 0.684315,-1.25345 0.0692087,-0.153783 0.141449,-0.311858 0.195185,-0.47111 0.2275,-0.674209 0.375531,-1.34188 0.527516,-2.02997 -0.535862,-0.0389646 -1.28177,-0.242335 -1.84279,-0.447075 -0.209449,-0.0764331 -0.551205,-0.21 -0.624961,-0.311626 -0.0129921,-0.0167008 -0.00465354,-0.0369488 0.052252,-0.0708425 0.107933,-0.0579724 0.230878,-0.111551 0.374252,-0.157409 0.775185,-0.262071 1.57707,-0.448976 2.38758,-0.637031l0.15872 -0.814969c0.0267283,-0.13724 0.0221142,-0.33735 -0.0758661,-0.555386 -0.0587323,-0.161921 -0.181697,-0.334992 -0.309917,-0.566024 -0.0489291,-0.0990315 -0.0258268,-0.140327 0.0465472,-0.142118z" />
 </g>
</svg>