<?xml version="1.0" encoding="UTF-8" standalone="no"?>
<!-- Created with Inkscape (http://www.inkscape.org/) -->
<svg
   xmlns:dc="http://purl.org/dc/elements/1.1/"
   xmlns:cc="http://web.resource.org/cc/"
   xmlns:rdf="http://www.w3.org/1999/02/22-rdf-syntax-ns#"
   xmlns:svg="http://www.w3.org/2000/svg"
   xmlns="http://www.w3.org/2000/svg"
   xmlns:xlink="http://www.w3.org/1999/xlink"
   xmlns:sodipodi="http://sodipodi.sourceforge.net/DTD/sodipodi-0.dtd"
   xmlns:inkscape="http://www.inkscape.org/namespaces/inkscape"
   id="svg2"
   sodipodi:version="0.32"
   inkscape:version="0.44"
   width="503"
   height="470"
   version="1.0"
   sodipodi:docbase="/home/users4/ommz/polzer/WWW/temp/running-marine"
   sodipodi:docname="flag-taken.svg"
   inkscape:export-filename="/home/users4/ommz/polzer/WWW/temp/running-marine/flag-taken-blue.png"
   inkscape:export-xdpi="9.7539482"
   inkscape:export-ydpi="9.7539482">
  <metadata
     id="metadata7">
    <rdf:RDF>
      <cc:Work
         rdf:about="">
        <dc:format>image/svg+xml</dc:format>
        <dc:type
           rdf:resource="http://purl.org/dc/dcmitype/StillImage" />
      </cc:Work>
    </rdf:RDF>
  </metadata>
  <defs
     id="defs5" />
  <sodipodi:namedview
     inkscape:window-height="625"
     inkscape:window-width="854"
     inkscape:pageshadow="2"
     inkscape:pageopacity="0.0"
     guidetolerance="10.0"
     gridtolerance="10.0"
     objecttolerance="10.0"
     borderopacity="1.0"
     bordercolor="#666666"
     pagecolor="#ffffff"
     id="base"
     showgrid="true"
     gridspacingx="2.5mm"
     gridspacingy="2.5mm"
     grid_units="mm"
     inkscape:grid-points="false"
     showguides="true"
     inkscape:guide-bbox="true"
     inkscape:grid-bbox="true"
     inkscape:zoom="0.41914894"
     inkscape:cx="287.59931"
     inkscape:cy="103.2055"
     inkscape:window-x="122"
     inkscape:window-y="154"
     inkscape:current-layer="svg2" />
  <g
     id="g3727"
     style="opacity:0.3"
     transform="matrix(0.934555,0,0,0.934555,55.17645,61.98067)"
     inkscape:export-xdpi="9.7539482"
     inkscape:export-ydpi="9.7539482">
    <path
       style="fill:red;fill-opacity:1;stroke:black;stroke-width:8;stroke-miterlimit:4;stroke-dasharray:none;stroke-opacity:1"
       d="M 77.936648,416.64918 C 66.929291,403.69748 47.183112,391.08021 47.468568,373.29631 C 61.580167,359.55032 81.18305,352.59514 97.68777,341.87372 C 110.74595,338.06729 118.44307,325.60734 131.14032,321.25949 C 135.23774,323.22955 138.01636,322.87548 140.0172,321.10616 C 145.99641,315.81884 145.02996,297.89311 151.55592,291.58386 C 160.41708,277.70343 159.66836,263.16374 151.9131,249.96044 C 155.45664,243.72563 166.71663,233.58495 153.20463,230.91525 C 150.00252,215.17855 175.41335,202.075 175.86122,197.3583 C 176.33392,192.38001 161.41329,172.43211 164.3281,159.50104 C 176.9793,149.65115 169.78762,127.26772 185.31798,119.25569 C 192.29054,113.20477 210.4602,112.16805 212.11472,108.77965 C 201.12352,97.080172 196.85491,76.451388 208.74212,64.292723 C 224.70534,54.897624 253.66981,63.271708 249.38462,85.387324 C 246.46527,97.938613 255.64422,119.85276 235.95305,120.95585 C 230.47567,135.53763 249.4295,147.25179 253.87515,160.6006 C 265.05211,172.03304 281.81019,176.78954 296.25889,178.5893 C 310.67702,185.99278 288.95145,207.16258 276.86491,208.87501 C 266.07803,212.64746 260.99023,200.43911 248.56706,199.24357 C 238.83475,180.87439 228.23756,204.15442 225.12821,214.88295 C 213.65178,221.44238 218.19122,227.13612 229.18395,228.95525 C 245.80155,238.06299 267.29134,240.22536 282.438,253.76183 C 299.52394,258.59567 310.08927,275.78366 295.39762,289.93827 C 298.94588,304.03742 292.54903,321.6244 289.93715,337.16017 C 278.51909,356.2747 292.73993,376.18783 309.33405,385.30202 C 313.65263,407.67285 287.14409,394.36219 275.71731,391.48441 C 260.84112,389.40428 250.51246,374.97195 260.19241,361.87832 C 261.27126,344.49092 263.85189,326.74433 259.40604,309.69521 C 257.08074,299.89268 265.30058,279.83135 249.8705,289.28304 C 236.68476,288.01966 223.42917,279.26247 210.09004,284.32363 C 197.57182,299.06507 191.69147,317.89165 180.59757,333.39344 C 175.89821,346.24998 171.80041,359.44265 155.36011,356.73483 C 136.17465,361.97053 118.11284,370.88329 98.07399,372.33299 C 72.235605,375.57602 96.62115,400.99427 88.93957,414.97797 C 86.16289,418.03926 81.55,417.41052 77.936648,416.64918 z "
       id="path3723"
       sodipodi:nodetypes="ccccscccscccccccccccccccccccccccccc" />
    <path
       style="fill:blue;fill-opacity:1;stroke:black;stroke-width:8;stroke-miterlimit:4;stroke-dasharray:none;stroke-dashoffset:0;stroke-opacity:1;opacity:1"
       d="M 279.0423,191.87383 L 330.33071,-14.440493 C 304.24885,-21.480848 277.5851,-19.962497 250.79521,-25.067388 C 225.00536,-31.478574 192.76761,-48.637795 192.76761,-48.637795 L 175.66896,20.143756 C 175.66896,20.143756 207.91424,37.272644 233.7041,43.683836 C 259.49396,50.095029 296.03668,50.066395 296.03668,50.066395 L 261.84691,187.59917"
       id="path3725"
       sodipodi:nodetypes="ccsccscc" />
  </g>
  <use
     x="0"
     y="0"
     xlink:href="#g3727"
     id="use3731"
     width="503"
     height="470"
     transform="translate(-18.6911,0)"
     style="opacity:0.7" />
  <use
     x="0"
     y="0"
     xlink:href="#use3731"
     id="use3733"
     transform="translate(-18.6911,0)"
     width="503"
     height="470"
     style="opacity:0.7" />
  <use
     x="0"
     y="0"
     xlink:href="#use3733"
     id="use3735"
     transform="translate(-18.6911,0)"
     width="503"
     height="470"
     style="opacity:0.7" />
  <use
     x="0"
     y="0"
     xlink:href="#use3735"
     id="use3737"
     transform="translate(-18.6911,0)"
     width="503"
     height="470"
     style="opacity:0.7" />
  <g
     id="g3739"
     transform="matrix(0.934555,0,0,0.934555,55.17645,61.98067)">
    <path
       sodipodi:nodetypes="ccccscccscccccccccccccccccccccccccc"
       id="path1873"
       d="M 97.936648,416.64918 C 86.929291,403.69748 67.183112,391.08021 67.468568,373.29631 C 81.580167,359.55032 101.18305,352.59514 117.68777,341.87372 C 130.74595,338.06729 138.44307,325.60734 151.14032,321.25949 C 155.23774,323.22955 158.01636,322.87548 160.0172,321.10616 C 165.99641,315.81884 165.02996,297.89311 171.55592,291.58386 C 180.41708,277.70343 179.66836,263.16374 171.9131,249.96044 C 175.45664,243.72563 186.71663,233.58495 173.20463,230.91525 C 170.00252,215.17855 195.41335,202.075 195.86122,197.3583 C 196.33392,192.38001 181.41329,172.43211 184.3281,159.50104 C 196.9793,149.65115 189.78762,127.26772 205.31798,119.25569 C 212.29054,113.20477 230.4602,112.16805 232.11472,108.77965 C 221.12352,97.080172 216.85491,76.451388 228.74212,64.292723 C 244.70534,54.897624 273.66981,63.271708 269.38462,85.387324 C 266.46527,97.938613 275.64422,119.85276 255.95305,120.95585 C 250.47567,135.53763 269.4295,147.25179 273.87515,160.6006 C 285.05211,172.03304 301.81019,176.78954 316.25889,178.5893 C 330.67702,185.99278 308.95145,207.16258 296.86491,208.87501 C 286.07803,212.64746 280.99023,200.43911 268.56706,199.24357 C 258.83475,180.87439 248.23756,204.15442 245.12821,214.88295 C 233.65178,221.44238 238.19122,227.13612 249.18395,228.95525 C 265.80155,238.06299 287.29134,240.22536 302.438,253.76183 C 319.52394,258.59567 330.08927,275.78366 315.39762,289.93827 C 318.94588,304.03742 312.54903,321.6244 309.93715,337.16017 C 298.51909,356.2747 312.73993,376.18783 329.33405,385.30202 C 333.65263,407.67285 307.14409,394.36219 295.71731,391.48441 C 280.84112,389.40428 270.51246,374.97195 280.19241,361.87832 C 281.27126,344.49092 283.85189,326.74433 279.40604,309.69521 C 277.08074,299.89268 285.30058,279.83135 269.8705,289.28304 C 256.68476,288.01966 243.42917,279.26247 230.09004,284.32363 C 217.57182,299.06507 211.69147,317.89165 200.59757,333.39344 C 195.89821,346.24998 191.80041,359.44265 175.36011,356.73483 C 156.17465,361.97053 138.11284,370.88329 118.07399,372.33299 C 92.235605,375.57602 116.62115,400.99427 108.93957,414.97797 C 106.16289,418.03926 101.55,417.41052 97.936648,416.64918 z "
       style="fill:red;fill-opacity:1;stroke:black;stroke-width:8;stroke-miterlimit:4;stroke-dasharray:none;stroke-opacity:1" />
    <path
       sodipodi:nodetypes="ccsccscc"
       id="path3671"
       d="M 299.0423,191.87383 L 350.33071,-14.440493 C 324.24885,-21.480848 297.5851,-19.962497 270.79521,-25.067388 C 245.00536,-31.478574 212.76761,-48.637795 212.76761,-48.637795 L 195.66896,20.143756 C 195.66896,20.143756 227.91424,37.272644 253.7041,43.683836 C 279.49396,50.095029 316.03668,50.066395 316.03668,50.066395 L 281.84691,187.59917"
       style="fill:blue;fill-opacity:1;stroke:black;stroke-width:8;stroke-miterlimit:4;stroke-dasharray:none;stroke-dashoffset:0;stroke-opacity:1" />
  </g>
</svg>
