<?xml version="1.0" encoding="UTF-8" standalone="no"?>
<!-- Created with Inkscape (http://www.inkscape.org/) -->
<svg
   xmlns:dc="http://purl.org/dc/elements/1.1/"
   xmlns:cc="http://creativecommons.org/ns#"
   xmlns:rdf="http://www.w3.org/1999/02/22-rdf-syntax-ns#"
   xmlns:svg="http://www.w3.org/2000/svg"
   xmlns="http://www.w3.org/2000/svg"
   xmlns:xlink="http://www.w3.org/1999/xlink"
   xmlns:sodipodi="http://sodipodi.sourceforge.net/DTD/sodipodi-0.dtd"
   xmlns:inkscape="http://www.inkscape.org/namespaces/inkscape"
   width="512"
   height="128"
   id="svg2"
   sodipodi:version="0.32"
   inkscape:version="0.46"
   version="1.0"
   sodipodi:docname="bigbutton_n.svg"
   inkscape:output_extension="org.inkscape.output.svg.inkscape"
   inkscape:export-filename="/home/sev/.xonotic/data/wickedx/svg/bigbutton_n.png"
   inkscape:export-xdpi="90"
   inkscape:export-ydpi="90">
  <defs
     id="defs4">
    <inkscape:perspective
       sodipodi:type="inkscape:persp3d"
       inkscape:vp_x="0 : 64 : 1"
       inkscape:vp_y="0 : 1000 : 0"
       inkscape:vp_z="512 : 64 : 1"
       inkscape:persp3d-origin="256 : 42.666667 : 1"
       id="perspective42" />
    <pattern
       patternUnits="userSpaceOnUse"
       width="512"
       height="512"
       id="ImgMetal1">
      <image
         xlink:href="textures/metal1.png"
         sodipodi:absref="/home/sev/.xonotic/data/wickedx/svg/textures/metal1.png"
         width="512"
         height="512"
         id="image2422"
         x="0"
         y="0" />
    </pattern>
    <pattern
       id="ImgMetal1Border"
       height="512"
       width="512"
       patternUnits="userSpaceOnUse">
      <image
         y="0"
         x="0"
         id="image2516"
         height="512"
         width="512"
         sodipodi:absref="/home/sev/.xonotic/data/wickedx/svg/textures/metal1_border.png"
         xlink:href="textures/metal1_border.png" />
    </pattern>
    <pattern
       patternUnits="userSpaceOnUse"
       width="512"
       height="512"
       id="ImgMetal2">
      <image
         xlink:href="textures/metal2.png"
         sodipodi:absref="/home/sev/.xonotic/data/wickedx/svg/textures/metal2.png"
         width="512"
         height="512"
         id="image2411"
         x="0"
         y="0" />
    </pattern>
    <pattern
       id="ColorN"
       height="64"
       width="64"
       patternUnits="userSpaceOnUse">
      <image
         y="0"
         x="0"
         id="image2426"
         height="64"
         width="64"
         sodipodi:absref="/home/sev/.xonotic/data/wickedx/svg/textures/color_n.png"
         xlink:href="textures/color_n.png" />
    </pattern>
    <pattern
       id="ColorNBack"
       height="64"
       width="64"
       patternUnits="userSpaceOnUse">
      <image
         y="0"
         x="0"
         id="image2390"
         height="64"
         width="64"
         sodipodi:absref="/home/sev/.xonotic/data/wickedx/svg/textures/color_n_back.png"
         xlink:href="textures/color_n_back.png" />
    </pattern>
    <linearGradient
       id="GradGlassReflection"
       gradientTransform="scale(3.0748245,0.3252218)"
       x1="83.256783"
       y1="61.496494"
       x2="83.256783"
       y2="245.98598"
       gradientUnits="userSpaceOnUse">
      <stop
         style="stop-color:#ffffff;stop-opacity:1;"
         offset="0"
         id="stop3176" />
      <stop
         style="stop-color:#ffffff;stop-opacity:0;"
         offset="1"
         id="stop3178" />
    </linearGradient>
    <filter
       inkscape:collect="always"
       id="filter4533">
      <feGaussianBlur
         inkscape:collect="always"
         stdDeviation="1.08"
         id="feGaussianBlur4535" />
    </filter>
    <filter
       inkscape:collect="always"
       id="filter3930">
      <feGaussianBlur
         inkscape:collect="always"
         stdDeviation="2.78"
         id="feGaussianBlur3932" />
    </filter>
    <filter
       inkscape:collect="always"
       id="filter3940">
      <feGaussianBlur
         inkscape:collect="always"
         stdDeviation="1.15"
         id="feGaussianBlur3942" />
    </filter>
    <filter
       inkscape:collect="always"
       id="filter3179"
       x="-0.071764706"
       width="1.1435294"
       y="-0.366"
       height="1.732">
      <feGaussianBlur
         inkscape:collect="always"
         stdDeviation="12.2"
         id="feGaussianBlur3181" />
    </filter>
    <filter
       inkscape:collect="always"
       id="filter3902">
      <feGaussianBlur
         inkscape:collect="always"
         stdDeviation="1.26"
         id="feGaussianBlur3904" />
    </filter>
  </defs>
  <sodipodi:namedview
     id="base"
     pagecolor="#ffffff"
     bordercolor="#666666"
     borderopacity="1.0"
     inkscape:pageopacity="0.0"
     inkscape:pageshadow="2"
     inkscape:zoom="1"
     inkscape:cx="311.4974"
     inkscape:cy="70.176125"
     inkscape:document-units="px"
     inkscape:current-layer="layer1"
     showgrid="false"
     inkscape:showpageshadow="false"
     inkscape:snap-bbox="true"
     gridtolerance="8"
     inkscape:window-width="1280"
     inkscape:window-height="961"
     inkscape:window-x="0"
     inkscape:window-y="0"
     showguides="true"
     inkscape:guide-bbox="true"
     guidecolor="#00007f"
     guideopacity="0.49803922"
     guidehicolor="#ff0000"
     guidehiopacity="0.49803922">
    <inkscape:grid
       type="xygrid"
       id="grid2389"
       visible="true"
       enabled="true"
       empspacing="4"
       color="#003fff"
       opacity="0.1254902"
       empcolor="#007eff"
       empopacity="0.25098039" />
    <sodipodi:guide
       orientation="1,0"
       position="128,0"
       id="guide3220" />
    <sodipodi:guide
       orientation="1,0"
       position="384,0"
       id="guide3224" />
  </sodipodi:namedview>
  <metadata
     id="metadata7">
    <rdf:RDF>
      <cc:Work
         rdf:about="">
        <dc:format>image/svg+xml</dc:format>
        <dc:type
           rdf:resource="http://purl.org/dc/dcmitype/StillImage" />
      </cc:Work>
    </rdf:RDF>
  </metadata>
  <g
     inkscape:label="Ebene 1"
     inkscape:groupmode="layer"
     id="layer1">
    <path
       style="fill:url(#ColorNBack);fill-opacity:1;fill-rule:evenodd;stroke:#000000;stroke-width:10;stroke-linecap:butt;stroke-linejoin:miter;stroke-miterlimit:4;stroke-dasharray:none;stroke-opacity:1;filter:url(#filter3930)"
       d="M 40,28 L 56,12 L 392,12 L 408,28 L 456,28 L 472,44 L 472,100 L 456,116 L 120,116 L 104,100 L 56,100 L 40,84 L 40,28 z"
       id="GlassBack" />
    <path
       style="opacity:1;fill:url(#ColorN);fill-opacity:1;fill-rule:evenodd;stroke:none;stroke-width:2;stroke-linecap:butt;stroke-linejoin:miter;stroke-miterlimit:4;stroke-dasharray:none;stroke-opacity:1;filter:url(#filter3179)"
       d="M 52,32 L 60,24 L 388,24 L 404,40 L 452,40 L 460,48 L 460,96 L 452,104 L 124,104 L 108,88 L 60,88 L 52,80 L 52,32 z"
       id="GlassColour" />
    <path
       id="GlassReflection"
       d="M 48,32 L 60,20 L 388,20 L 404,36 L 452,36 L 464,48 C 464,56 456,64 448,64 L 64,64 C 56,64 48,56 48,48 L 48,32 z"
       style="opacity:0.5;fill:url(#GradGlassReflection);fill-opacity:1;fill-rule:evenodd;stroke:none;stroke-width:2;stroke-linecap:butt;stroke-linejoin:miter;stroke-miterlimit:4;stroke-dasharray:none;stroke-opacity:1;filter:url(#filter3940)" />
    <path
       style="fill:url(#ImgMetal1);fill-opacity:1;fill-rule:evenodd;stroke:none;stroke-width:3;stroke-linecap:butt;stroke-linejoin:miter;stroke-miterlimit:4;stroke-dasharray:none;stroke-opacity:1"
       d="M 20,4 L 4,20 L 4,92 L 36,124 L 492,124 L 508,108 L 508,36 L 476,4 L 20,4 z M 56,12 L 392,12 L 408,28 L 456,28 L 472,44 L 472,100 L 456,116 L 120,116 L 104,100 L 56,100 L 40,84 L 40,28 L 56,12 z"
       id="Frame" />
    <path
       id="FrameBorder"
       d="M 20,4 L 4,20 L 4,92 L 36,124 L 492,124 L 508,108 L 508,36 L 476,4 L 20,4 z M 56,12 L 392,12 L 408,28 L 456,28 L 472,44 L 472,100 L 456,116 L 120,116 L 104,100 L 56,100 L 40,84 L 40,28 L 56,12 z"
       style="fill:none;fill-opacity:1;fill-rule:evenodd;stroke:url(#ImgMetal1Border);stroke-width:3;stroke-linecap:butt;stroke-linejoin:miter;stroke-miterlimit:4;stroke-dasharray:none;stroke-opacity:1;filter:url(#filter3902)" />
    <path
       style="fill:url(#ImgMetal2);fill-opacity:1;fill-rule:evenodd;stroke:none;stroke-width:2;stroke-linecap:butt;stroke-linejoin:miter;stroke-miterlimit:4;stroke-dasharray:none;stroke-opacity:1"
       d="M 16,32 L 0,32 L 0,96 L 32,128 L 108,128 L 108,120 L 100,112 L 52,112 L 28,88 L 28,44 L 16,32 z"
       id="AttLeft" />
    <path
       id="AttLeftShadow"
       d="M 16,32 L 0,32 L 0,96 L 32,128 L 108,128 L 108,120 L 100,112 L 52,112 L 28,88 L 28,44 L 16,32 z"
       style="fill:none;fill-opacity:1;fill-rule:evenodd;stroke:#000000;stroke-width:2;stroke-linecap:butt;stroke-linejoin:miter;stroke-miterlimit:4;stroke-dasharray:none;stroke-opacity:1;filter:url(#filter4533)" />
    <path
       id="AttRight"
       d="M 496,96 L 512,96 L 512,32 L 480,0 L 404,0 L 404,8 L 412,16 L 460,16 L 484,40 L 484,84 L 496,96 z"
       style="fill:url(#ImgMetal2);fill-opacity:1;fill-rule:evenodd;stroke:none;stroke-width:2;stroke-linecap:butt;stroke-linejoin:miter;stroke-miterlimit:4;stroke-dasharray:none;stroke-opacity:1" />
    <path
       style="fill:none;fill-opacity:1;fill-rule:evenodd;stroke:#000000;stroke-width:2;stroke-linecap:butt;stroke-linejoin:miter;stroke-miterlimit:4;stroke-dasharray:none;stroke-opacity:1;filter:url(#filter4533)"
       d="M 496,96 L 512,96 L 512,32 L 480,0 L 404,0 L 404,8 L 412,16 L 460,16 L 484,40 L 484,84 L 496,96 z"
       id="AttRightShadow" />
  </g>
</svg>
