<?xml version="1.0" encoding="UTF-8" standalone="no"?>
<!-- Created with Inkscape (http://www.inkscape.org/) -->
<svg
   xmlns:dc="http://purl.org/dc/elements/1.1/"
   xmlns:cc="http://creativecommons.org/ns#"
   xmlns:rdf="http://www.w3.org/1999/02/22-rdf-syntax-ns#"
   xmlns:svg="http://www.w3.org/2000/svg"
   xmlns="http://www.w3.org/2000/svg"
   xmlns:xlink="http://www.w3.org/1999/xlink"
   xmlns:sodipodi="http://sodipodi.sourceforge.net/DTD/sodipodi-0.dtd"
   xmlns:inkscape="http://www.inkscape.org/namespaces/inkscape"
   width="256"
   height="256"
   id="svg2"
   sodipodi:version="0.32"
   inkscape:version="0.46"
   version="1.0"
   sodipodi:docname="checkmark.svg"
   inkscape:output_extension="org.inkscape.output.svg.inkscape"
   inkscape:export-filename="/home/sev/.xonotic/data/wickedx/svg/checkmark.png"
   inkscape:export-xdpi="45"
   inkscape:export-ydpi="45">
  <defs
     id="defs4">
    <pattern
       patternUnits="userSpaceOnUse"
       width="64"
       height="64"
       id="ColorN">
      <image
         xlink:href="textures/color_n.png"
         sodipodi:absref="/home/sev/.xonotic/data/wickedx/svg/textures/color_n.png"
         width="64"
         height="64"
         id="image2426"
         x="0"
         y="0" />
    </pattern>
    <pattern
       id="Metal1Border"
       height="64"
       width="64"
       patternUnits="userSpaceOnUse">
      <image
         y="0"
         x="0"
         id="image3950"
         height="64"
         width="64"
         sodipodi:absref="/home/sev/.xonotic/data/wickedx/svg/textures/metal1_border.png"
         xlink:href="textures/metal1_border.png" />
    </pattern>
    <pattern
       id="ColorNBack"
       height="64"
       width="64"
       patternUnits="userSpaceOnUse">
      <image
         y="0"
         x="0"
         id="image3892"
         height="64"
         width="64"
         sodipodi:absref="/home/sev/.xonotic/data/wickedx/svg/textures/color_n_back.png"
         xlink:href="textures/color_n_back.png" />
    </pattern>
    <filter
       inkscape:collect="always"
       id="filter3965">
      <feGaussianBlur
         inkscape:collect="always"
         stdDeviation="3.3750661"
         id="feGaussianBlur3967" />
    </filter>
    <filter
       inkscape:collect="always"
       id="filter3892">
      <feGaussianBlur
         inkscape:collect="always"
         stdDeviation="1.3191916"
         id="feGaussianBlur3894" />
    </filter>
  </defs>
  <sodipodi:namedview
     id="base"
     pagecolor="#ffffff"
     bordercolor="#666666"
     borderopacity="1.0"
     inkscape:pageopacity="0"
     inkscape:pageshadow="2"
     inkscape:zoom="1"
     inkscape:cx="154"
     inkscape:cy="110.9181"
     inkscape:document-units="px"
     inkscape:current-layer="layer1"
     showgrid="false"
     inkscape:showpageshadow="false"
     inkscape:snap-bbox="true"
     gridtolerance="8"
     inkscape:window-width="1280"
     inkscape:window-height="963"
     inkscape:window-x="0"
     inkscape:window-y="0"
     showguides="false"
     inkscape:guide-bbox="true"
     guidecolor="#00007f"
     guideopacity="0.49803922"
     guidehicolor="#ff0000"
     guidehiopacity="0.49803922">
    <inkscape:grid
       type="xygrid"
       id="grid2389"
       visible="true"
       enabled="true"
       empspacing="4"
       color="#003fff"
       opacity="0.1254902"
       empcolor="#007eff"
       empopacity="0.25098039" />
  </sodipodi:namedview>
  <metadata
     id="metadata7">
    <rdf:RDF>
      <cc:Work
         rdf:about="">
        <dc:format>image/svg+xml</dc:format>
        <dc:type
           rdf:resource="http://purl.org/dc/dcmitype/StillImage" />
        <cc:license
           rdf:resource="" />
      </cc:Work>
    </rdf:RDF>
  </metadata>
  <g
     inkscape:label="Ebene 1"
     inkscape:groupmode="layer"
     id="layer1"
     style="display:inline">
    <path
       style="fill:url(#ColorNBack);fill-opacity:1;stroke:url(#Metal1Border);stroke-width:3;stroke-linejoin:round;stroke-miterlimit:4;stroke-dasharray:none;stroke-opacity:1;filter:url(#filter3892)"
       d="M 92.4845,32.719 C 54.38204,47.394099 27.32845,84.35105 27.32845,127.62501 C 27.32846,183.77487 72.86481,229.281 129.01563,229.281 C 185.16546,229.281 230.67146,183.77487 230.67156,127.62501 C 230.67156,86.6824 206.45579,51.393893 171.578,35.281489 C 199.12792,50.247346 217.82785,79.44257 217.82785,113.00004 C 217.82786,156.14394 186.90145,192.0846 146.01558,199.84358 C 140.6456,200.86257 135.12011,228.74975 129.45313,228.74975 C 123.78716,228.74975 118.22842,200.86257 112.85943,199.84358 C 71.97257,192.08459 41.07841,156.14494 41.07841,113.00004 C 41.07842,77.38954 62.1385,46.71439 92.4845,32.719 z"
       id="path17"
       sodipodi:nodetypes="cssscsssssc" />
    <path
       style="fill:url(#ColorN);fill-opacity:1.0;stroke:none;stroke-width:3;stroke-linejoin:round;stroke-miterlimit:4;stroke-dasharray:none;stroke-opacity:1;filter:url(#filter3965)"
       d="M 41.59375,83.90625 C 24.115229,118.36619 29.365673,163.16626 55.5,191.96875 C 72.124401,210.75271 95.872575,223.09802 121,225 C 117.38207,218.03931 116.17268,209.77186 111.25,203.625 C 67.817549,195.78954 34.141389,152.96102 37.15625,108.84375 C 37.480514,99.948336 39.309123,91.159563 42.15625,82.75 L 41.718784,83.649235 L 41.59375,83.90625 z M 219.03125,90.21875 C 228.06858,125.11102 214.86123,164.60689 185.875,186.15625 C 174.51289,194.92584 161.04667,200.82405 147.15625,204 C 142.9853,210.28078 141.13062,218.3342 138.03125,224.90625 C 181.56336,221.62531 220.1683,185.20497 225.6875,141.78125 C 228.22871,123.88387 225.76858,105.40117 218.6875,88.84375 L 218.93004,89.813893 L 219.03125,90.21875 z"
       id="path3945" />
  </g>
</svg>
