<?xml version="1.0" encoding="UTF-8" standalone="no"?>
<!-- Created with Inkscape (http://www.inkscape.org/) -->
<svg
   xmlns:dc="http://purl.org/dc/elements/1.1/"
   xmlns:cc="http://creativecommons.org/ns#"
   xmlns:rdf="http://www.w3.org/1999/02/22-rdf-syntax-ns#"
   xmlns:svg="http://www.w3.org/2000/svg"
   xmlns="http://www.w3.org/2000/svg"
   xmlns:xlink="http://www.w3.org/1999/xlink"
   xmlns:sodipodi="http://sodipodi.sourceforge.net/DTD/sodipodi-0.dtd"
   xmlns:inkscape="http://www.inkscape.org/namespaces/inkscape"
   width="512"
   height="128"
   id="svg2"
   sodipodi:version="0.32"
   inkscape:version="0.46"
   version="1.0"
   sodipodi:docname="inputbox_f.svg"
   inkscape:output_extension="org.inkscape.output.svg.inkscape"
   inkscape:export-filename="/home/sev/.xonotic/data/wickedx/svg/inputbox_f.png"
   inkscape:export-xdpi="45"
   inkscape:export-ydpi="45">
  <defs
     id="defs4">
    <pattern
       patternUnits="userSpaceOnUse"
       width="512"
       height="512"
       patternTransform="translate(0,0)"
       id="ImgMetal1">
      <image
         xlink:href="textures/metal1.png"
         sodipodi:absref="/home/sev/.xonotic/data/wickedx/svg/textures/metal1.png"
         width="512"
         height="512"
         id="image2422"
         x="0"
         y="0" />
    </pattern>
    <pattern
       patternUnits="userSpaceOnUse"
       width="512"
       height="512"
       patternTransform="translate(0,0)"
       id="ImgMetal2">
      <image
         xlink:href="textures/metal2.png"
         sodipodi:absref="/home/sev/.xonotic/data/wickedx/svg/textures/metal2.png"
         width="512"
         height="512"
         id="image2424"
         x="0"
         y="0" />
    </pattern>
    <filter
       inkscape:collect="always"
       id="filter3893">
      <feGaussianBlur
         inkscape:collect="always"
         stdDeviation="1.02"
         id="feGaussianBlur3895" />
    </filter>
    <filter
       inkscape:collect="always"
       id="filter3899">
      <feGaussianBlur
         inkscape:collect="always"
         stdDeviation="1.02"
         id="feGaussianBlur3901" />
    </filter>
    <filter
       inkscape:collect="always"
       id="filter3892">
      <feGaussianBlur
         inkscape:collect="always"
         stdDeviation="1.34"
         id="feGaussianBlur3894" />
    </filter>
    <filter
       inkscape:collect="always"
       id="filter3175">
      <feGaussianBlur
         inkscape:collect="always"
         stdDeviation="1.085"
         id="feGaussianBlur3177" />
    </filter>
    <pattern
       id="ImgMetal1Border"
       height="512"
       width="512"
       patternUnits="userSpaceOnUse">
      <image
         y="0"
         x="0"
         id="image2516"
         height="512"
         width="512"
         sodipodi:absref="/home/sev/.xonotic/data/wickedx/svg/textures/metal1_border.png"
         xlink:href="textures/metal1_border.png" />
    </pattern>
    <pattern
       id="ColorF"
       height="64"
       width="64"
       patternUnits="userSpaceOnUse">
      <image
         y="0"
         x="0"
         id="image2462"
         height="64"
         width="64"
         sodipodi:absref="/home/sev/.xonotic/data/wickedx/svg/textures/color_f.png"
         xlink:href="textures/color_f.png" />
    </pattern>
  </defs>
  <sodipodi:namedview
     id="base"
     pagecolor="#ffffff"
     bordercolor="#666666"
     borderopacity="1.0"
     inkscape:pageopacity="0.0"
     inkscape:pageshadow="2"
     inkscape:zoom="1"
     inkscape:cx="322.75153"
     inkscape:cy="26.304212"
     inkscape:document-units="px"
     inkscape:current-layer="layer1"
     showgrid="false"
     inkscape:showpageshadow="false"
     inkscape:snap-bbox="true"
     gridtolerance="8"
     inkscape:window-width="1280"
     inkscape:window-height="961"
     inkscape:window-x="0"
     inkscape:window-y="0"
     showguides="true"
     inkscape:guide-bbox="true"
     guidecolor="#00007f"
     guideopacity="0.49803922"
     guidehicolor="#ff0000"
     guidehiopacity="0.49803922">
    <inkscape:grid
       type="xygrid"
       id="grid2389"
       visible="true"
       enabled="true"
       empspacing="4"
       color="#003fff"
       opacity="0.1254902"
       empcolor="#007eff"
       empopacity="0.25098039" />
    <sodipodi:guide
       orientation="1,0"
       position="128,0"
       id="guide3220" />
    <sodipodi:guide
       orientation="1,0"
       position="384,0"
       id="guide3224" />
  </sodipodi:namedview>
  <metadata
     id="metadata7">
    <rdf:RDF>
      <cc:Work
         rdf:about="">
        <dc:format>image/svg+xml</dc:format>
        <dc:type
           rdf:resource="http://purl.org/dc/dcmitype/StillImage" />
      </cc:Work>
    </rdf:RDF>
  </metadata>
  <g
     inkscape:label="Ebene 1"
     inkscape:groupmode="layer"
     id="layer1">
    <path
       style="opacity:0.75;fill:url(#ColorF);fill-opacity:1;fill-rule:evenodd;stroke:none;stroke-width:1px;stroke-linecap:butt;stroke-linejoin:miter;stroke-opacity:1;filter:url(#filter3892)"
       d="M 48,16 L 464,16 L 464,120 L 48,120 L 48,16 z"
       id="Field" />
    <path
       style="fill:url(#ImgMetal1);fill-opacity:1;fill-rule:evenodd;stroke:none;stroke-width:4;stroke-linecap:butt;stroke-linejoin:miter;stroke-miterlimit:4;stroke-dasharray:none;stroke-opacity:1"
       d="M 40,124 L 8,92 L 8,24 L 24,8 L 56,8 L 64,16 L 64,40 L 56,48 L 56,80 L 92,116 L 420,116 L 456,80 L 456,48 L 448,40 L 448,16 L 456,8 L 488,8 L 504,24 L 504,92 L 472,124 L 40,124 z"
       id="Frame" />
    <path
       id="FrameBorder"
       d="M 40,124 L 8,92 L 8,24 L 24,8 L 56,8 L 64,16 L 64,40 L 56,48 L 56,80 L 92,116 L 420,116 L 456,80 L 456,48 L 448,40 L 448,16 L 456,8 L 488,8 L 504,24 L 504,92 L 472,124 L 40,124 z"
       style="fill:none;fill-opacity:1;fill-rule:evenodd;stroke:url(#ImgMetal1Border);stroke-width:4;stroke-linecap:butt;stroke-linejoin:miter;stroke-miterlimit:4;stroke-dasharray:none;stroke-opacity:1;filter:url(#filter3175)" />
    <path
       style="fill:url(#ImgMetal2);fill-opacity:1;fill-rule:evenodd;stroke:none;stroke-width:1px;stroke-linecap:butt;stroke-linejoin:miter;stroke-opacity:1"
       d="M 0,16 L 16,0 L 48,0 L 48,16 L 32,32 L 32,80 L 72,120 L 72,128 L 32,128 C 32,128 0,96 0,96 L 0,16 z"
       id="Att1" />
    <path
       id="Att1Shadow"
       d="M 0,16 L 16,0 L 48,0 L 48,16 L 32,32 L 32,80 L 72,120 L 72,128 L 32,128 C 32,128 0,96 0,96 L 0,16 z"
       style="fill:none;fill-opacity:1;fill-rule:evenodd;stroke:#000000;stroke-width:2;stroke-linecap:butt;stroke-linejoin:miter;stroke-miterlimit:4;stroke-dasharray:none;stroke-opacity:1;filter:url(#filter3893)" />
    <path
       id="Att2"
       d="M 512,16 L 496,0 L 464,0 L 464,16 L 480,32 L 480,80 L 440,120 L 440,128 L 480,128 C 480,128 512,96 512,96 L 512,16 z"
       style="fill:url(#ImgMetal2);fill-opacity:1;fill-rule:evenodd;stroke:none;stroke-width:1px;stroke-linecap:butt;stroke-linejoin:miter;stroke-opacity:1" />
    <path
       style="fill:none;fill-opacity:1;fill-rule:evenodd;stroke:#000000;stroke-width:2;stroke-linecap:butt;stroke-linejoin:miter;stroke-miterlimit:4;stroke-dasharray:none;stroke-opacity:1;filter:url(#filter3899)"
       d="M 512,16 L 496,0 L 464,0 L 464,16 L 480,32 L 480,80 L 440,120 L 440,128 L 480,128 C 480,128 512,96 512,96 L 512,16 z"
       id="Att2Shadow" />
  </g>
</svg>
