<?xml version="1.0" encoding="UTF-8" standalone="no"?>
<!-- Created with Inkscape (http://www.inkscape.org/) -->
<svg
   xmlns:dc="http://purl.org/dc/elements/1.1/"
   xmlns:cc="http://creativecommons.org/ns#"
   xmlns:rdf="http://www.w3.org/1999/02/22-rdf-syntax-ns#"
   xmlns:svg="http://www.w3.org/2000/svg"
   xmlns="http://www.w3.org/2000/svg"
   xmlns:xlink="http://www.w3.org/1999/xlink"
   xmlns:sodipodi="http://sodipodi.sourceforge.net/DTD/sodipodi-0.dtd"
   xmlns:inkscape="http://www.inkscape.org/namespaces/inkscape"
   width="128"
   height="512"
   id="svg2"
   sodipodi:version="0.32"
   inkscape:version="0.46"
   version="1.0"
   sodipodi:docname="scrollbar_n.svg"
   inkscape:output_extension="org.inkscape.output.svg.inkscape"
   inkscape:export-filename="/home/sev/.xonotic/data/wickedx/svg/scrollbar_n.png"
   inkscape:export-xdpi="45"
   inkscape:export-ydpi="45">
  <defs
     id="defs4">
    <pattern
       patternUnits="userSpaceOnUse"
       width="512"
       height="512"
       patternTransform="translate(0,0)"
       id="ImgMetal1">
      <image
         xlink:href="textures/metal1.png"
         sodipodi:absref="/home/sev/.xonotic/data/wickedx/svg/textures/metal1.png"
         width="512"
         height="512"
         id="image2422"
         x="0"
         y="0"
         transform="matrix(0,1,-1,0,0,0)" />
    </pattern>
    <pattern
       patternUnits="userSpaceOnUse"
       width="512"
       height="512"
       patternTransform="translate(0,0)"
       id="ImgMetal2">
      <image
         xlink:href="textures/metal2.png"
         sodipodi:absref="/home/sev/.xonotic/data/wickedx/svg/textures/metal2.png"
         width="512"
         height="512"
         id="image2424"
         x="0"
         y="0" />
    </pattern>
    <filter
       inkscape:collect="always"
       id="filter3885">
      <feGaussianBlur
         inkscape:collect="always"
         stdDeviation="1.49"
         id="feGaussianBlur3887" />
    </filter>
    <filter
       inkscape:collect="always"
       id="filter3884">
      <feGaussianBlur
         inkscape:collect="always"
         stdDeviation="1.036"
         id="feGaussianBlur3886" />
    </filter>
    <pattern
       id="ImgMetal1Border"
       height="512"
       width="512"
       patternUnits="userSpaceOnUse">
      <image
         y="0"
         x="0"
         id="image2516"
         height="512"
         width="512"
         sodipodi:absref="/home/sev/.xonotic/data/wickedx/svg/textures/metal1_border.png"
         xlink:href="textures/metal1_border.png" />
    </pattern>
  </defs>
  <sodipodi:namedview
     id="base"
     pagecolor="#ffffff"
     bordercolor="#666666"
     borderopacity="1.0"
     inkscape:pageopacity="0.0"
     inkscape:pageshadow="2"
     inkscape:zoom="1"
     inkscape:cx="64.613021"
     inkscape:cy="288.29441"
     inkscape:document-units="px"
     inkscape:current-layer="layer1"
     showgrid="false"
     inkscape:showpageshadow="false"
     inkscape:snap-bbox="true"
     gridtolerance="8"
     inkscape:window-width="1280"
     inkscape:window-height="961"
     inkscape:window-x="0"
     inkscape:window-y="0"
     showguides="true"
     inkscape:guide-bbox="true"
     guidecolor="#00007f"
     guideopacity="0.49803922"
     guidehicolor="#ff0000"
     guidehiopacity="0.49803922">
    <inkscape:grid
       type="xygrid"
       id="grid2389"
       visible="true"
       enabled="true"
       empspacing="4"
       color="#003fff"
       opacity="0.1254902"
       empcolor="#007eff"
       empopacity="0.25098039" />
    <sodipodi:guide
       orientation="0,1"
       position="0,128"
       id="guide3220" />
    <sodipodi:guide
       orientation="0,1"
       position="0,384"
       id="guide3224" />
  </sodipodi:namedview>
  <metadata
     id="metadata7">
    <rdf:RDF>
      <cc:Work
         rdf:about="">
        <dc:format>image/svg+xml</dc:format>
        <dc:type
           rdf:resource="http://purl.org/dc/dcmitype/StillImage" />
      </cc:Work>
    </rdf:RDF>
  </metadata>
  <g
     inkscape:label="Ebene 1"
     inkscape:groupmode="layer"
     id="layer1"
     style="display:inline">
    <path
       style="fill:url(#ImgMetal1);fill-opacity:1;fill-rule:evenodd;stroke:none;stroke-width:4;stroke-linecap:butt;stroke-linejoin:miter;stroke-miterlimit:4;stroke-dasharray:none;stroke-opacity:1"
       d="M 8,24 L 16,16 L 80,16 L 112,48 L 112,464 L 80,496 L 16,496 L 8,488 L 8,408 L 24,392 L 24,120 L 8,104 L 8,24 z"
       id="Frame" />
    <path
       id="FrameBorder"
       d="M 8,24 L 16,16 L 80,16 L 112,48 L 112,464 L 80,496 L 16,496 L 8,488 L 8,408 L 24,392 L 24,120 L 8,104 L 8,24 z"
       style="fill:none;fill-opacity:1;fill-rule:evenodd;stroke:url(#ImgMetal1Border);stroke-width:4;stroke-linecap:butt;stroke-linejoin:miter;stroke-miterlimit:4;stroke-dasharray:none;stroke-opacity:1;filter:url(#filter3884)" />
    <path
       style="fill:url(#ImgMetal2);fill-opacity:1;fill-rule:evenodd;stroke:none;stroke-width:1px;stroke-linecap:butt;stroke-linejoin:miter;stroke-opacity:1"
       d="M 24,8 L 24,16 L 40,32 L 80,32 L 104,56 L 104,104 L 88,120 L 88,392 L 104,408 L 104,456 L 80,480 L 40,480 L 24,496 L 24,504 L 88,504 L 120,472 L 120,40 L 88,8 L 24,8 z"
       id="Att" />
    <path
       id="AttShadow"
       d="M 24,8 L 24,16 L 40,32 L 80,32 L 104,56 L 104,104 L 88,120 L 88,392 L 104,408 L 104,456 L 80,480 L 40,480 L 24,496 L 24,504 L 88,504 L 120,472 L 120,40 L 88,8 L 24,8 z"
       style="fill:none;fill-opacity:1;fill-rule:evenodd;stroke:#000000;stroke-width:2;stroke-linecap:butt;stroke-linejoin:miter;stroke-miterlimit:4;stroke-dasharray:none;stroke-opacity:1;filter:url(#filter3885)" />
  </g>
</svg>
